<?xml version="1.0" encoding="utf-8"?>
<!-- Generator: Adobe Illustrator 24.2.1, SVG Export Plug-In . SVG Version: 6.00 Build 0)  -->
<svg version="1.1" id="Layer_1" xmlns="http://www.w3.org/2000/svg" xmlns:xlink="http://www.w3.org/1999/xlink" x="0px" y="0px"
	 viewBox="0 0 72 72" style="enable-background:new 0 0 72 72;" xml:space="preserve">
<style type="text/css">
	.st0{clip-path:url(#SVGID_2_);}
</style>
<g>
	<defs>
		<rect id="SVGID_1_" x="3.05" y="2.34" width="65.79" height="66.88"/>
	</defs>
	<clipPath id="SVGID_2_">
		<use xlink:href="#SVGID_1_"  style="overflow:visible;"/>
	</clipPath>
	<path class="st0" d="M68.09,2.78c-0.49-0.3-1.07-0.44-1.73-0.44c-0.96,0-1.95,0.29-2.99,0.87c-1.04,0.58-2.09,1.35-3.14,2.33
		c-1.06,0.97-2.1,2.1-3.12,3.37c-1.02,1.27-1.98,2.58-2.87,3.94c-1.65,2.48-3.24,5.01-4.78,7.6c-1.53,2.59-3.13,5.4-4.78,8.44
		c-0.36,0-0.79,0.02-1.29,0.05c-0.5,0.03-1,0.07-1.51,0.1c-0.51,0.03-0.99,0.08-1.44,0.15c-0.44,0.07-0.8,0.13-1.06,0.2
		c-0.4,0.13-0.83,0.47-1.29,1.01c-0.46,0.55-0.92,1.36-1.39,2.45l0.15,0.05c0.36-0.73,0.69-1.29,0.96-1.71
		c0.28-0.41,0.67-0.72,1.16-0.94c0.49-0.22,1.16-0.37,1.98-0.47c0.82-0.1,1.95-0.2,3.37-0.3c-0.79,1.35-1.68,2.94-2.65,4.75
		c-0.97,1.82-2.01,3.7-3.12,5.67c-1.11,1.96-2.24,3.94-3.41,5.94c-1.17,2-2.35,3.87-3.54,5.62c-2.24,3.3-4.41,6.03-6.51,8.19
		c-2.09,2.16-4.1,3.88-6.01,5.17c-1.91,1.29-3.74,2.18-5.47,2.7c-1.73,0.51-3.34,0.78-4.83,0.82c-0.92,0-1.72-0.12-2.38-0.37
		C5.76,67.7,5.2,67.4,4.76,67.03c-0.44-0.36-0.78-0.74-1.01-1.11c-0.23-0.38-0.36-0.69-0.4-0.92c-0.07-0.17-0.13-0.26-0.2-0.3
		c-0.07-0.03-0.1,0.08-0.1,0.35c0.2,0.89,0.5,1.61,0.89,2.15c0.4,0.55,0.85,0.97,1.36,1.26c0.51,0.3,1.04,0.5,1.58,0.6
		c0.55,0.1,1.05,0.15,1.51,0.15c1.58,0,3.26-0.3,5.02-0.92c1.77-0.61,3.66-1.6,5.67-2.97c2.01-1.37,4.13-3.15,6.36-5.35
		c2.23-2.2,4.58-4.88,7.05-8.04c0.99-1.29,2.07-2.78,3.24-4.48c1.17-1.7,2.36-3.54,3.56-5.52c1.21-1.98,2.41-4.04,3.61-6.16
		c1.2-2.13,2.35-4.25,3.44-6.36c0.63,0,1.33-0.01,2.1-0.03c0.77-0.02,1.53-0.03,2.25-0.05s1.35-0.03,1.88-0.03h0.99
		c0.07-0.23,0.02-0.4-0.15-0.5H52.2h-1.98c-0.73,0-1.43,0.01-2.13,0.03c-0.69,0.02-1.19,0.03-1.49,0.03
		c0.69-1.39,1.45-2.88,2.28-4.48c0.82-1.6,1.65-3.17,2.48-4.7c0.82-1.53,1.6-2.98,2.33-4.33c0.73-1.35,1.34-2.46,1.83-3.32
		c0.89-1.52,1.76-2.77,2.6-3.76c0.84-0.99,1.65-1.78,2.43-2.38c0.77-0.59,1.53-1.01,2.28-1.24c0.74-0.23,1.46-0.35,2.15-0.35
		c0.99,0,1.76,0.18,2.3,0.54c0.55,0.36,0.82,0.88,0.82,1.54c0,0.2-0.01,0.4-0.03,0.59c-0.02,0.2-0.06,0.43-0.12,0.69
		c0.07,0.07,0.13,0.1,0.2,0.1c0.1,0,0.18-0.03,0.25-0.1c0-0.2,0.02-0.5,0.07-0.89c0.05-0.4,0.1-0.79,0.15-1.19
		c0.05-0.39,0.1-0.76,0.15-1.09c0.05-0.33,0.07-0.56,0.07-0.69C68.84,3.43,68.59,3.08,68.09,2.78 M33.07,33.13
		c-0.41,0.86-0.92,1.71-1.51,2.55c-0.59,0.84-1.22,1.58-1.88,2.2c-0.66,0.63-1.27,0.94-1.83,0.94c-0.3,0-0.49-0.1-0.57-0.3
		c-0.08-0.2-0.12-0.41-0.12-0.64c-0.03-0.76,0.12-1.56,0.47-2.4c0.35-0.84,0.73-1.62,1.16-2.35c0.33-0.56,0.69-1.11,1.09-1.63
		c0.4-0.53,0.79-1,1.19-1.41c0.4-0.41,0.79-0.74,1.19-0.99c0.4-0.25,0.77-0.37,1.14-0.37c0.13,0,0.2,0.08,0.2,0.25
		c0,0.36,0.02,0.74,0.05,1.14c0.03,0.4,0.08,0.74,0.15,1.04C33.72,31.61,33.48,32.27,33.07,33.13 M41.93,30.5
		c-0.15-0.07-0.26-0.02-0.32,0.15c-0.46,0.66-1.04,1.27-1.73,1.83c-0.69,0.56-1.47,0.84-2.33,0.84s-1.46-0.3-1.81-0.89
		c-0.35-0.59-0.52-1.35-0.52-2.28c0-0.66,0.06-1.27,0.17-1.83c0.11-0.56,0.29-1.02,0.52-1.39c0.07-0.13,0.05-0.22-0.05-0.27
		c-0.1-0.05-0.2-0.04-0.3,0.03c-0.13,0.07-0.28,0.11-0.44,0.15c-0.17,0.03-0.33,0.07-0.5,0.1c-0.33,0.07-0.56,0.27-0.69,0.62
		c-0.13,0.35-0.23,0.65-0.3,0.92c-1.02,0.1-1.98,0.41-2.87,0.94c-0.89,0.53-1.68,1.17-2.38,1.93c-0.33,0.33-0.69,0.76-1.07,1.29
		c-0.38,0.53-0.73,1.09-1.06,1.68c-0.33,0.59-0.6,1.2-0.82,1.83c-0.21,0.63-0.32,1.24-0.32,1.83c0,1.06,0.59,1.58,1.78,1.58
		c0.4,0,0.89-0.13,1.49-0.4c0.69-0.36,1.34-0.82,1.95-1.38c0.61-0.56,1.16-1.18,1.66-1.86c0.5-0.68,0.92-1.35,1.29-2.03
		c0.36-0.68,0.66-1.28,0.89-1.81c0.33,0.56,0.77,0.98,1.31,1.26c0.55,0.28,1.1,0.42,1.66,0.42c1.02,0,1.94-0.3,2.75-0.92
		c0.81-0.61,1.49-1.29,2.05-2.05C42.09,30.67,42.08,30.57,41.93,30.5"/>
</g>
</svg>
